<svg xmlns="http://www.w3.org/2000/svg" xmlns:xlink="http://www.w3.org/1999/xlink" width="500" zoomAndPan="magnify" viewBox="0 0 375 374.999991" height="500" preserveAspectRatio="xMidYMid meet" version="1.0"><defs><g/><clipPath id="cc5ce8a57c"><path d="M 68.316406 68.316406 L 306.683594 68.316406 L 306.683594 306.683594 L 68.316406 306.683594 Z M 68.316406 68.316406 " clip-rule="nonzero"/></clipPath><clipPath id="97f6d8ab1c"><path d="M 187.5 68.316406 C 121.675781 68.316406 68.316406 121.675781 68.316406 187.5 C 68.316406 253.324219 121.675781 306.683594 187.5 306.683594 C 253.324219 306.683594 306.683594 253.324219 306.683594 187.5 C 306.683594 121.675781 253.324219 68.316406 187.5 68.316406 Z M 187.5 68.316406 " clip-rule="nonzero"/></clipPath><clipPath id="72003de12a"><path d="M 125.546875 126.96875 L 249.453125 126.96875 L 249.453125 250.871094 L 125.546875 250.871094 Z M 125.546875 126.96875 " clip-rule="nonzero"/></clipPath><clipPath id="bc8c0511ea"><path d="M 187.5 126.96875 C 153.285156 126.96875 125.546875 154.703125 125.546875 188.917969 C 125.546875 223.132812 153.285156 250.871094 187.5 250.871094 C 221.714844 250.871094 249.453125 223.132812 249.453125 188.917969 C 249.453125 154.703125 221.714844 126.96875 187.5 126.96875 Z M 187.5 126.96875 " clip-rule="nonzero"/></clipPath><clipPath id="097b763aaa"><path d="M 176.855469 178.277344 L 198.144531 178.277344 L 198.144531 199.5625 L 176.855469 199.5625 Z M 176.855469 178.277344 " clip-rule="nonzero"/></clipPath><clipPath id="2a05977624"><path d="M 187.5 178.277344 C 181.621094 178.277344 176.855469 183.042969 176.855469 188.917969 C 176.855469 194.796875 181.621094 199.5625 187.5 199.5625 C 193.378906 199.5625 198.144531 194.796875 198.144531 188.917969 C 198.144531 183.042969 193.378906 178.277344 187.5 178.277344 Z M 187.5 178.277344 " clip-rule="nonzero"/></clipPath></defs><g clip-path="url(#cc5ce8a57c)"><g clip-path="url(#97f6d8ab1c)"><path fill="#000000" d="M 68.316406 68.316406 L 306.683594 68.316406 L 306.683594 306.683594 L 68.316406 306.683594 Z M 68.316406 68.316406 " fill-opacity="1" fill-rule="nonzero"/></g></g><g clip-path="url(#72003de12a)"><g clip-path="url(#bc8c0511ea)"><path fill="#282525" d="M 125.546875 126.96875 L 249.453125 126.96875 L 249.453125 250.871094 L 125.546875 250.871094 Z M 125.546875 126.96875 " fill-opacity="1" fill-rule="nonzero"/></g></g><g clip-path="url(#097b763aaa)"><g clip-path="url(#2a05977624)"><path fill="#000000" d="M 176.855469 178.277344 L 198.144531 178.277344 L 198.144531 199.5625 L 176.855469 199.5625 Z M 176.855469 178.277344 " fill-opacity="1" fill-rule="nonzero"/></g></g><g fill="#ea580c" fill-opacity="1"><g transform="translate(130.417212, 131.369005)"><g><path d="M 2.703125 -2.046875 C 2.503906 -1.898438 2.273438 -1.84375 2.015625 -1.875 C 1.765625 -1.914062 1.566406 -2.03125 1.421875 -2.21875 L -12.875 -21.03125 C -13.039062 -21.238281 -13.109375 -21.46875 -13.078125 -21.71875 C -13.054688 -21.96875 -12.9375 -22.171875 -12.71875 -22.328125 L -5.109375 -28.125 C -2.242188 -30.300781 0.492188 -31.304688 3.109375 -31.140625 C 5.734375 -30.984375 8.054688 -29.664062 10.078125 -27.1875 C 10.515625 -26.632812 11.082031 -25.898438 11.78125 -24.984375 C 12.488281 -24.046875 13.046875 -23.300781 13.453125 -22.75 C 17.273438 -17.300781 16.273438 -12.367188 10.453125 -7.953125 Z M 7 -12.203125 C 8.21875 -13.128906 8.894531 -14.097656 9.03125 -15.109375 C 9.175781 -16.117188 8.785156 -17.28125 7.859375 -18.59375 C 7.472656 -19.1875 6.941406 -19.925781 6.265625 -20.8125 C 5.585938 -21.695312 5.023438 -22.394531 4.578125 -22.90625 C 3.597656 -24.113281 2.566406 -24.773438 1.484375 -24.890625 C 0.410156 -25.015625 -0.734375 -24.613281 -1.953125 -23.6875 L -4.71875 -21.59375 L 4.09375 -10 Z M 7 -12.203125 "/></g></g></g><g fill="#ea580c" fill-opacity="1"><g transform="translate(154.358458, 114.010392)"><g><path d="M 1.03125 -0.265625 C 0.832031 -0.210938 0.632812 -0.242188 0.4375 -0.359375 C 0.25 -0.472656 0.132812 -0.625 0.09375 -0.8125 C 0.0507812 -0.957031 0.03125 -1.066406 0.03125 -1.140625 L 2.34375 -25.859375 C 2.394531 -26.609375 2.773438 -27.078125 3.484375 -27.265625 L 8.984375 -28.703125 C 9.671875 -28.878906 10.226562 -28.65625 10.65625 -28.03125 L 24.765625 -7.625 C 24.804688 -7.550781 24.847656 -7.441406 24.890625 -7.296875 C 24.929688 -7.109375 24.894531 -6.921875 24.78125 -6.734375 C 24.675781 -6.546875 24.523438 -6.425781 24.328125 -6.375 L 19.75 -5.171875 C 19.1875 -5.023438 18.722656 -5.175781 18.359375 -5.625 L 16.203125 -8.71875 L 6.984375 -6.296875 L 6.59375 -2.546875 C 6.488281 -1.972656 6.15625 -1.613281 5.59375 -1.46875 Z M 7.046875 -11.984375 L 13.328125 -13.625 L 7.859375 -21.78125 Z M 7.046875 -11.984375 "/></g></g></g><g fill="#ea580c" fill-opacity="1"><g transform="translate(184.003291, 108.039408)"><g><path d="M 3.390625 0.1875 C 3.140625 0.175781 2.925781 0.078125 2.75 -0.109375 C 2.582031 -0.304688 2.503906 -0.523438 2.515625 -0.765625 L 3.8125 -24.40625 C 3.820312 -24.664062 3.921875 -24.875 4.109375 -25.03125 C 4.304688 -25.195312 4.53125 -25.273438 4.78125 -25.265625 L 9.96875 -24.984375 C 10.238281 -24.972656 10.453125 -24.875 10.609375 -24.6875 C 10.765625 -24.507812 10.835938 -24.289062 10.828125 -24.03125 L 9.53125 -0.390625 C 9.519531 -0.148438 9.425781 0.0507812 9.25 0.21875 C 9.070312 0.394531 8.847656 0.476562 8.578125 0.46875 Z M 3.390625 0.1875 "/></g></g></g><g fill="#ea580c" fill-opacity="1"><g transform="translate(200.463387, 108.877506)"><g><path d="M 3.203125 1.125 C 2.960938 1.039062 2.785156 0.882812 2.671875 0.65625 C 2.566406 0.425781 2.550781 0.195312 2.625 -0.03125 L 10.53125 -22.34375 C 10.613281 -22.582031 10.769531 -22.753906 11 -22.859375 C 11.226562 -22.972656 11.460938 -22.988281 11.703125 -22.90625 L 16.5 -21.203125 C 16.75 -21.109375 16.925781 -20.953125 17.03125 -20.734375 C 17.132812 -20.515625 17.144531 -20.285156 17.0625 -20.046875 L 10.765625 -2.265625 L 21.0625 1.390625 C 21.3125 1.472656 21.488281 1.628906 21.59375 1.859375 C 21.707031 2.097656 21.722656 2.34375 21.640625 2.59375 L 20.34375 6.234375 C 20.257812 6.484375 20.101562 6.65625 19.875 6.75 C 19.644531 6.851562 19.40625 6.863281 19.15625 6.78125 Z M 3.203125 1.125 "/></g></g></g><g fill="#ea580c" fill-opacity="1"><g transform="translate(224.437263, 117.783829)"><g><path d="M 7.59375 6.40625 C 7.414062 6.25 7.316406 6.039062 7.296875 5.78125 C 7.273438 5.53125 7.335938 5.316406 7.484375 5.140625 L 12.5 -0.796875 L 16.15625 -18.171875 C 16.175781 -18.316406 16.234375 -18.445312 16.328125 -18.5625 C 16.453125 -18.71875 16.625 -18.800781 16.84375 -18.8125 C 17.070312 -18.832031 17.265625 -18.78125 17.421875 -18.65625 L 21.078125 -15.5625 C 21.347656 -15.34375 21.507812 -15.09375 21.5625 -14.8125 C 21.613281 -14.539062 21.617188 -14.304688 21.578125 -14.109375 L 19.546875 -3.84375 L 29.3125 -7.578125 C 29.5 -7.648438 29.734375 -7.679688 30.015625 -7.671875 C 30.296875 -7.671875 30.566406 -7.5625 30.828125 -7.34375 L 34.5 -4.25 C 34.644531 -4.125 34.722656 -3.945312 34.734375 -3.71875 C 34.753906 -3.5 34.703125 -3.3125 34.578125 -3.15625 C 34.484375 -3.039062 34.367188 -2.960938 34.234375 -2.921875 L 17.734375 3.609375 L 12.71875 9.546875 C 12.550781 9.742188 12.34375 9.847656 12.09375 9.859375 C 11.84375 9.878906 11.613281 9.800781 11.40625 9.625 Z M 7.59375 6.40625 "/></g></g></g><g fill="#ea580c" fill-opacity="1"><g transform="translate(129.758491, 269.276868)"><g><path d="M 2.984375 1.609375 C 2.765625 1.484375 2.617188 1.296875 2.546875 1.046875 C 2.472656 0.804688 2.488281 0.582031 2.59375 0.375 L 13.796875 -20.4375 C 13.921875 -20.675781 14.101562 -20.832031 14.34375 -20.90625 C 14.582031 -20.988281 14.820312 -20.960938 15.0625 -20.828125 L 23.484375 -16.296875 C 26.648438 -14.597656 28.703125 -12.523438 29.640625 -10.078125 C 30.578125 -7.628906 30.332031 -4.96875 28.90625 -2.09375 C 28.59375 -1.457031 28.164062 -0.632812 27.625 0.375 C 27.070312 1.40625 26.617188 2.21875 26.265625 2.8125 C 22.898438 8.550781 18.003906 9.6875 11.578125 6.21875 Z M 14 1.328125 C 15.351562 2.046875 16.519531 2.257812 17.5 1.96875 C 18.488281 1.675781 19.382812 0.835938 20.1875 -0.546875 C 20.5625 -1.148438 21.015625 -1.941406 21.546875 -2.921875 C 22.066406 -3.910156 22.46875 -4.710938 22.75 -5.328125 C 23.445312 -6.710938 23.625 -7.921875 23.28125 -8.953125 C 22.9375 -9.984375 22.085938 -10.859375 20.734375 -11.578125 L 17.6875 -13.234375 L 10.796875 -0.40625 Z M 14 1.328125 "/></g></g></g><g fill="#ea580c" fill-opacity="1"><g transform="translate(163.40167, 284.414061)"><g><path d="M 3.328125 0.671875 C 3.078125 0.628906 2.878906 0.5 2.734375 0.28125 C 2.597656 0.0703125 2.554688 -0.148438 2.609375 -0.390625 L 7.328125 -23.578125 C 7.378906 -23.835938 7.507812 -24.03125 7.71875 -24.15625 C 7.9375 -24.289062 8.171875 -24.335938 8.421875 -24.296875 L 13.515625 -23.25 C 13.773438 -23.195312 13.96875 -23.070312 14.09375 -22.875 C 14.226562 -22.675781 14.269531 -22.445312 14.21875 -22.1875 L 9.5 1 C 9.445312 1.238281 9.316406 1.429688 9.109375 1.578125 C 8.910156 1.722656 8.679688 1.769531 8.421875 1.71875 Z M 3.328125 0.671875 "/></g></g></g><g fill="#ea580c" fill-opacity="1"><g transform="translate(185.828149, 288.314723)"><g><path d="M 12.109375 -0.625 C 9.765625 -0.425781 7.738281 -0.597656 6.03125 -1.140625 C 4.332031 -1.691406 3.015625 -2.488281 2.078125 -3.53125 C 1.148438 -4.582031 0.609375 -5.753906 0.453125 -7.046875 C 0.429688 -7.253906 0.492188 -7.4375 0.640625 -7.59375 C 0.796875 -7.757812 0.984375 -7.847656 1.203125 -7.859375 L 6.015625 -8.25 C 6.304688 -8.28125 6.539062 -8.253906 6.71875 -8.171875 C 6.90625 -8.085938 7.117188 -7.9375 7.359375 -7.71875 C 7.734375 -7.164062 8.269531 -6.726562 8.96875 -6.40625 C 9.664062 -6.082031 10.566406 -5.96875 11.671875 -6.0625 C 12.984375 -6.164062 13.972656 -6.445312 14.640625 -6.90625 C 15.316406 -7.363281 15.625 -7.941406 15.5625 -8.640625 C 15.519531 -9.148438 15.300781 -9.550781 14.90625 -9.84375 C 14.519531 -10.144531 13.914062 -10.390625 13.09375 -10.578125 C 12.269531 -10.765625 11.101562 -10.957031 9.59375 -11.15625 C 6.613281 -11.5 4.347656 -12.203125 2.796875 -13.265625 C 1.253906 -14.335938 0.394531 -15.972656 0.21875 -18.171875 C 0.09375 -19.671875 0.398438 -21.039062 1.140625 -22.28125 C 1.878906 -23.519531 2.988281 -24.523438 4.46875 -25.296875 C 5.957031 -26.078125 7.722656 -26.550781 9.765625 -26.71875 C 11.890625 -26.894531 13.757812 -26.675781 15.375 -26.0625 C 16.988281 -25.445312 18.253906 -24.625 19.171875 -23.59375 C 20.097656 -22.5625 20.628906 -21.515625 20.765625 -20.453125 C 20.785156 -20.234375 20.726562 -20.035156 20.59375 -19.859375 C 20.46875 -19.691406 20.296875 -19.597656 20.078125 -19.578125 L 15 -19.171875 C 14.46875 -19.128906 14.035156 -19.316406 13.703125 -19.734375 C 13.515625 -20.234375 13.101562 -20.632812 12.46875 -20.9375 C 11.84375 -21.238281 11.085938 -21.351562 10.203125 -21.28125 C 9.179688 -21.195312 8.40625 -20.953125 7.875 -20.546875 C 7.34375 -20.140625 7.109375 -19.582031 7.171875 -18.875 C 7.222656 -18.175781 7.628906 -17.65625 8.390625 -17.3125 C 9.148438 -16.976562 10.535156 -16.679688 12.546875 -16.421875 C 14.847656 -16.203125 16.695312 -15.835938 18.09375 -15.328125 C 19.5 -14.816406 20.5625 -14.097656 21.28125 -13.171875 C 22 -12.242188 22.414062 -11.03125 22.53125 -9.53125 C 22.664062 -7.882812 22.3125 -6.414062 21.46875 -5.125 C 20.625 -3.84375 19.390625 -2.8125 17.765625 -2.03125 C 16.148438 -1.257812 14.265625 -0.789062 12.109375 -0.625 Z M 12.109375 -0.625 "/></g></g></g><g fill="#ea580c" fill-opacity="1"><g transform="translate(221.356599, 283.480172)"><g><path d="M 11.953125 -5.203125 C 8.816406 -3.722656 6 -3.320312 3.5 -4 C 1 -4.675781 -0.988281 -6.457031 -2.46875 -9.34375 C -2.78125 -9.914062 -3.25 -10.867188 -3.875 -12.203125 C -4.507812 -13.578125 -4.957031 -14.578125 -5.21875 -15.203125 C -6.445312 -18.109375 -6.515625 -20.757812 -5.421875 -23.15625 C -4.335938 -25.5625 -2.25 -27.488281 0.84375 -28.9375 C 2.8125 -29.851562 4.71875 -30.351562 6.5625 -30.4375 C 8.40625 -30.53125 10.054688 -30.179688 11.515625 -29.390625 C 12.984375 -28.609375 14.128906 -27.398438 14.953125 -25.765625 C 15.046875 -25.566406 15.046875 -25.367188 14.953125 -25.171875 C 14.867188 -24.972656 14.734375 -24.828125 14.546875 -24.734375 L 9.859375 -22.546875 C 9.546875 -22.398438 9.289062 -22.351562 9.09375 -22.40625 C 8.894531 -22.46875 8.664062 -22.632812 8.40625 -22.90625 C 7.582031 -23.832031 6.757812 -24.363281 5.9375 -24.5 C 5.125 -24.644531 4.195312 -24.476562 3.15625 -24 C 0.675781 -22.832031 0.0390625 -20.84375 1.25 -18.03125 C 1.5 -17.425781 1.910156 -16.507812 2.484375 -15.28125 C 3.066406 -14.039062 3.519531 -13.109375 3.84375 -12.484375 C 5.226562 -9.753906 7.160156 -8.972656 9.640625 -10.140625 C 10.648438 -10.609375 11.375 -11.210938 11.8125 -11.953125 C 12.257812 -12.703125 12.378906 -13.671875 12.171875 -14.859375 C 12.109375 -15.234375 12.125 -15.515625 12.21875 -15.703125 C 12.3125 -15.898438 12.515625 -16.070312 12.828125 -16.21875 L 17.515625 -18.40625 C 17.703125 -18.5 17.898438 -18.515625 18.109375 -18.453125 C 18.316406 -18.390625 18.46875 -18.257812 18.5625 -18.0625 C 19.289062 -16.382812 19.488281 -14.726562 19.15625 -13.09375 C 18.820312 -11.46875 18.03125 -9.972656 16.78125 -8.609375 C 15.53125 -7.253906 13.921875 -6.117188 11.953125 -5.203125 Z M 11.953125 -5.203125 "/></g></g></g></svg>